<mxfile host="app.diagrams.net" modified="2022-06-10T08:49:52.349Z" agent="5.0 (Windows NT 10.0; Win64; x64) AppleWebKit/537.36 (KHTML, like Gecko) Chrome/102.0.5005.63 Safari/537.36" etag="XLacsVMkWCttfEe4IUc8" version="19.0.3" type="github">
  <diagram id="wHCIY2bOlsfEsZx9pWF6" name="Page-1">
    <mxGraphModel dx="1247" dy="647" grid="0" gridSize="10" guides="1" tooltips="1" connect="1" arrows="1" fold="1" page="1" pageScale="1" pageWidth="827" pageHeight="1169" math="0" shadow="0">
      <root>
        <mxCell id="0" />
        <mxCell id="1" parent="0" />
        <mxCell id="2A49t2iNZ0mUx9Svp8C6-1" value="Client" style="rounded=0;whiteSpace=wrap;html=1;" vertex="1" parent="1">
          <mxGeometry x="359" y="114" width="109" height="44" as="geometry" />
        </mxCell>
        <mxCell id="2A49t2iNZ0mUx9Svp8C6-2" value="Order" style="rounded=0;whiteSpace=wrap;html=1;" vertex="1" parent="1">
          <mxGeometry x="200" y="199" width="109" height="44" as="geometry" />
        </mxCell>
        <mxCell id="2A49t2iNZ0mUx9Svp8C6-3" value="Category" style="rounded=0;whiteSpace=wrap;html=1;" vertex="1" parent="1">
          <mxGeometry x="522" y="199" width="109" height="44" as="geometry" />
        </mxCell>
        <mxCell id="2A49t2iNZ0mUx9Svp8C6-4" value="Order_detail" style="rounded=0;whiteSpace=wrap;html=1;" vertex="1" parent="1">
          <mxGeometry x="200" y="292" width="109" height="44" as="geometry" />
        </mxCell>
        <mxCell id="2A49t2iNZ0mUx9Svp8C6-5" value="Product" style="rounded=0;whiteSpace=wrap;html=1;" vertex="1" parent="1">
          <mxGeometry x="522" y="292" width="109" height="44" as="geometry" />
        </mxCell>
        <mxCell id="2A49t2iNZ0mUx9Svp8C6-6" value="Product type" style="rounded=0;whiteSpace=wrap;html=1;" vertex="1" parent="1">
          <mxGeometry x="653" y="397" width="109" height="44" as="geometry" />
        </mxCell>
        <mxCell id="2A49t2iNZ0mUx9Svp8C6-7" value="Comment" style="rounded=0;whiteSpace=wrap;html=1;" vertex="1" parent="1">
          <mxGeometry x="420" y="401" width="109" height="44" as="geometry" />
        </mxCell>
        <mxCell id="2A49t2iNZ0mUx9Svp8C6-8" value="Customer" style="rounded=0;whiteSpace=wrap;html=1;" vertex="1" parent="1">
          <mxGeometry x="420" y="485" width="109" height="44" as="geometry" />
        </mxCell>
        <mxCell id="2A49t2iNZ0mUx9Svp8C6-9" value="" style="endArrow=none;html=1;rounded=0;entryX=0.5;entryY=1;entryDx=0;entryDy=0;" edge="1" parent="1" target="2A49t2iNZ0mUx9Svp8C6-1">
          <mxGeometry width="50" height="50" relative="1" as="geometry">
            <mxPoint x="414" y="175" as="sourcePoint" />
            <mxPoint x="437" y="307" as="targetPoint" />
          </mxGeometry>
        </mxCell>
        <mxCell id="2A49t2iNZ0mUx9Svp8C6-10" value="" style="endArrow=none;html=1;rounded=0;" edge="1" parent="1">
          <mxGeometry width="50" height="50" relative="1" as="geometry">
            <mxPoint x="253" y="175" as="sourcePoint" />
            <mxPoint x="579" y="175" as="targetPoint" />
          </mxGeometry>
        </mxCell>
        <mxCell id="2A49t2iNZ0mUx9Svp8C6-11" value="" style="endArrow=none;html=1;rounded=0;entryX=0.5;entryY=0;entryDx=0;entryDy=0;" edge="1" parent="1" target="2A49t2iNZ0mUx9Svp8C6-2">
          <mxGeometry width="50" height="50" relative="1" as="geometry">
            <mxPoint x="254" y="175" as="sourcePoint" />
            <mxPoint x="437" y="307" as="targetPoint" />
          </mxGeometry>
        </mxCell>
        <mxCell id="2A49t2iNZ0mUx9Svp8C6-12" value="" style="endArrow=none;html=1;rounded=0;entryX=0.5;entryY=0;entryDx=0;entryDy=0;" edge="1" parent="1" target="2A49t2iNZ0mUx9Svp8C6-3">
          <mxGeometry width="50" height="50" relative="1" as="geometry">
            <mxPoint x="577" y="174" as="sourcePoint" />
            <mxPoint x="437" y="307" as="targetPoint" />
          </mxGeometry>
        </mxCell>
        <mxCell id="2A49t2iNZ0mUx9Svp8C6-13" value="" style="endArrow=none;html=1;rounded=0;entryX=0.5;entryY=1;entryDx=0;entryDy=0;exitX=0.5;exitY=0;exitDx=0;exitDy=0;" edge="1" parent="1" source="2A49t2iNZ0mUx9Svp8C6-4" target="2A49t2iNZ0mUx9Svp8C6-2">
          <mxGeometry width="50" height="50" relative="1" as="geometry">
            <mxPoint x="387" y="357" as="sourcePoint" />
            <mxPoint x="437" y="307" as="targetPoint" />
          </mxGeometry>
        </mxCell>
        <mxCell id="2A49t2iNZ0mUx9Svp8C6-14" value="" style="endArrow=none;html=1;rounded=0;entryX=0.5;entryY=1;entryDx=0;entryDy=0;exitX=0.5;exitY=0;exitDx=0;exitDy=0;" edge="1" parent="1" source="2A49t2iNZ0mUx9Svp8C6-5" target="2A49t2iNZ0mUx9Svp8C6-3">
          <mxGeometry width="50" height="50" relative="1" as="geometry">
            <mxPoint x="387" y="357" as="sourcePoint" />
            <mxPoint x="437" y="307" as="targetPoint" />
          </mxGeometry>
        </mxCell>
        <mxCell id="2A49t2iNZ0mUx9Svp8C6-15" value="" style="endArrow=none;html=1;rounded=0;" edge="1" parent="1">
          <mxGeometry width="50" height="50" relative="1" as="geometry">
            <mxPoint x="471" y="365" as="sourcePoint" />
            <mxPoint x="708" y="365" as="targetPoint" />
          </mxGeometry>
        </mxCell>
        <mxCell id="2A49t2iNZ0mUx9Svp8C6-16" value="" style="endArrow=none;html=1;rounded=0;entryX=0.5;entryY=0;entryDx=0;entryDy=0;exitX=0.5;exitY=1;exitDx=0;exitDy=0;" edge="1" parent="1" source="2A49t2iNZ0mUx9Svp8C6-7" target="2A49t2iNZ0mUx9Svp8C6-8">
          <mxGeometry width="50" height="50" relative="1" as="geometry">
            <mxPoint x="387" y="357" as="sourcePoint" />
            <mxPoint x="437" y="307" as="targetPoint" />
          </mxGeometry>
        </mxCell>
        <mxCell id="2A49t2iNZ0mUx9Svp8C6-18" value="" style="endArrow=none;html=1;rounded=0;entryX=0.5;entryY=1;entryDx=0;entryDy=0;" edge="1" parent="1" target="2A49t2iNZ0mUx9Svp8C6-5">
          <mxGeometry width="50" height="50" relative="1" as="geometry">
            <mxPoint x="577" y="365" as="sourcePoint" />
            <mxPoint x="437" y="307" as="targetPoint" />
          </mxGeometry>
        </mxCell>
        <mxCell id="2A49t2iNZ0mUx9Svp8C6-19" value="" style="endArrow=none;html=1;rounded=0;entryX=0.5;entryY=0;entryDx=0;entryDy=0;" edge="1" parent="1" target="2A49t2iNZ0mUx9Svp8C6-6">
          <mxGeometry width="50" height="50" relative="1" as="geometry">
            <mxPoint x="707" y="363" as="sourcePoint" />
            <mxPoint x="437" y="307" as="targetPoint" />
          </mxGeometry>
        </mxCell>
        <mxCell id="2A49t2iNZ0mUx9Svp8C6-20" value="" style="endArrow=none;html=1;rounded=0;" edge="1" parent="1">
          <mxGeometry width="50" height="50" relative="1" as="geometry">
            <mxPoint x="472" y="399" as="sourcePoint" />
            <mxPoint x="472" y="366" as="targetPoint" />
          </mxGeometry>
        </mxCell>
        <mxCell id="2A49t2iNZ0mUx9Svp8C6-24" value="" style="endArrow=classic;startArrow=classic;html=1;rounded=0;entryX=0;entryY=0.5;entryDx=0;entryDy=0;exitX=1;exitY=0.5;exitDx=0;exitDy=0;" edge="1" parent="1" source="2A49t2iNZ0mUx9Svp8C6-4" target="2A49t2iNZ0mUx9Svp8C6-5">
          <mxGeometry width="50" height="50" relative="1" as="geometry">
            <mxPoint x="387" y="357" as="sourcePoint" />
            <mxPoint x="437" y="307" as="targetPoint" />
          </mxGeometry>
        </mxCell>
      </root>
    </mxGraphModel>
  </diagram>
</mxfile>
